<?xml version="1.0" encoding="UTF-8" standalone="no"?>
<!-- Created with Inkscape (http://www.inkscape.org/) -->

<svg
   xmlns:dc="http://purl.org/dc/elements/1.1/"
   xmlns:cc="http://creativecommons.org/ns#"
   xmlns:rdf="http://www.w3.org/1999/02/22-rdf-syntax-ns#"
   xmlns:svg="http://www.w3.org/2000/svg"
   xmlns="http://www.w3.org/2000/svg"
   xmlns:sodipodi="http://sodipodi.sourceforge.net/DTD/sodipodi-0.dtd"
   xmlns:inkscape="http://www.inkscape.org/namespaces/inkscape"
   width="486.02054"
   height="486.02054"
   id="svg2"
   version="1.1"
   inkscape:version="0.48.3.1 r9886"
   sodipodi:docname="annulardomain.svg">
  <defs
     id="defs4">
    <marker
       inkscape:stockid="Arrow2Mstart"
       orient="auto"
       refY="0"
       refX="0"
       id="Arrow2Mstart"
       style="overflow:visible">
      <path
         id="path3925"
         style="fill-rule:evenodd;stroke-width:0.625;stroke-linejoin:round"
         d="M 8.7185878,4.0337352 -2.2072895,0.01601326 8.7185884,-4.0017078 c -1.7454984,2.3720609 -1.7354408,5.6174519 -6e-7,8.035443 z"
         transform="scale(0.6,0.6)"
         inkscape:connector-curvature="0" />
    </marker>
    <marker
       inkscape:stockid="Arrow2Mend"
       orient="auto"
       refY="0"
       refX="0"
       id="Arrow2Mend"
       style="overflow:visible">
      <path
         id="path3928"
         style="fill-rule:evenodd;stroke-width:0.625;stroke-linejoin:round"
         d="M 8.7185878,4.0337352 -2.2072895,0.01601326 8.7185884,-4.0017078 c -1.7454984,2.3720609 -1.7354408,5.6174519 -6e-7,8.035443 z"
         transform="scale(-0.6,-0.6)"
         inkscape:connector-curvature="0" />
    </marker>
    <marker
       inkscape:stockid="Arrow1Lend"
       orient="auto"
       refY="0"
       refX="0"
       id="Arrow1Lend"
       style="overflow:visible">
      <path
         id="path3904"
         d="M 0,0 5,-5 -12.5,0 5,5 0,0 z"
         style="fill-rule:evenodd;stroke:#000000;stroke-width:1pt"
         transform="matrix(-0.8,0,0,-0.8,-10,0)"
         inkscape:connector-curvature="0" />
    </marker>
  </defs>
  <sodipodi:namedview
     id="base"
     pagecolor="#ffffff"
     bordercolor="#666666"
     borderopacity="1.0"
     inkscape:pageopacity="0.0"
     inkscape:pageshadow="2"
     inkscape:zoom="0.98994949"
     inkscape:cx="355.82726"
     inkscape:cy="239.56871"
     inkscape:document-units="px"
     inkscape:current-layer="layer1"
     showgrid="false"
     inkscape:snap-global="false"
     inkscape:window-width="1301"
     inkscape:window-height="744"
     inkscape:window-x="65"
     inkscape:window-y="24"
     inkscape:window-maximized="1"
     fit-margin-top="0"
     fit-margin-left="0"
     fit-margin-right="0"
     fit-margin-bottom="0">
    <inkscape:grid
       type="xygrid"
       id="grid2985"
       empspacing="5"
       visible="true"
       enabled="true"
       snapvisiblegridlinesonly="true"
       originx="-98.801796px"
       originy="-306.97703px" />
  </sodipodi:namedview>
  <metadata
     id="metadata7">
    <rdf:RDF>
      <cc:Work
         rdf:about="">
        <dc:format>image/svg+xml</dc:format>
        <dc:type
           rdf:resource="http://purl.org/dc/dcmitype/StillImage" />
        <dc:title></dc:title>
      </cc:Work>
    </rdf:RDF>
  </metadata>
  <g
     inkscape:label="Layer 1"
     inkscape:groupmode="layer"
     id="layer1"
     transform="translate(-98.801796,-259.36463)">
    <path
       sodipodi:type="arc"
       style="fill:none;stroke:#000000;stroke-width:2;stroke-miterlimit:4;stroke-opacity:1;stroke-dasharray:none"
       id="path2987"
       sodipodi:cx="481.8147"
       sodipodi:cy="714.17688"
       sodipodi:rx="201.8147"
       sodipodi:ry="201.8147"
       d="m 683.62939,714.17688 c 0,111.45918 -90.35551,201.8147 -201.81469,201.8147 C 370.35552,915.99158 280,825.63606 280,714.17688 c 0,-111.45918 90.35552,-201.8147 201.8147,-201.8147 111.45918,0 201.81469,90.35552 201.81469,201.8147 z"
       transform="matrix(1.1982016,0,0,1.1982016,-235.49645,-353.36571)" />
    <path
       transform="matrix(0.30179837,0,0,0.30179837,196.4038,286.82474)"
       d="m 683.62939,714.17688 c 0,111.45918 -90.35551,201.8147 -201.81469,201.8147 C 370.35552,915.99158 280,825.63606 280,714.17688 c 0,-111.45918 90.35552,-201.8147 201.8147,-201.8147 111.45918,0 201.81469,90.35552 201.81469,201.8147 z"
       sodipodi:ry="201.8147"
       sodipodi:rx="201.8147"
       sodipodi:cy="714.17688"
       sodipodi:cx="481.8147"
       id="path3757"
       style="fill:#8bfb8b;fill-opacity:1;stroke:#000000;stroke-width:6.6269412;stroke-miterlimit:4;stroke-opacity:1;stroke-dasharray:none"
       sodipodi:type="arc" />
    <g
       id="g3789">
      <g
         id="g3779">
        <path
           sodipodi:type="arc"
           style="fill:#ff0000;fill-opacity:1;stroke:#000000;stroke-width:3;stroke-miterlimit:4;stroke-opacity:1;stroke-dasharray:none"
           id="path3767"
           sodipodi:cx="220"
           sodipodi:cy="362.36218"
           sodipodi:rx="10"
           sodipodi:ry="10"
           d="m 230,362.36218 c 0,5.52285 -4.47715,10 -10,10 -5.52285,0 -10,-4.47715 -10,-10 0,-5.52284 4.47715,-10 10,-10 5.52285,0 10,4.47716 10,10 z"
           transform="matrix(0.5,0,0,0.5,231.81469,171.18108)" />
        <path
           transform="matrix(0.5,0,0,0.5,231.81469,471.18108)"
           d="m 230,362.36218 c 0,5.52285 -4.47715,10 -10,10 -5.52285,0 -10,-4.47715 -10,-10 0,-5.52284 4.47715,-10 10,-10 5.52285,0 10,4.47716 10,10 z"
           sodipodi:ry="10"
           sodipodi:rx="10"
           sodipodi:cy="362.36218"
           sodipodi:cx="220"
           id="path3769"
           style="fill:#ff0000;fill-opacity:1;stroke:#000000;stroke-width:3;stroke-miterlimit:4;stroke-opacity:1;stroke-dasharray:none"
           sodipodi:type="arc" />
      </g>
      <g
         transform="matrix(0,1,-1,0,844.17686,160.54748)"
         id="g3783">
        <path
           transform="matrix(0.5,0,0,0.5,231.81469,171.18108)"
           d="m 230,362.36218 c 0,5.52285 -4.47715,10 -10,10 -5.52285,0 -10,-4.47715 -10,-10 0,-5.52284 4.47715,-10 10,-10 5.52285,0 10,4.47716 10,10 z"
           sodipodi:ry="10"
           sodipodi:rx="10"
           sodipodi:cy="362.36218"
           sodipodi:cx="220"
           id="path3785"
           style="fill:#ff0000;fill-opacity:1;stroke:#000000;stroke-width:3;stroke-miterlimit:4;stroke-opacity:1;stroke-dasharray:none"
           sodipodi:type="arc" />
        <path
           sodipodi:type="arc"
           style="fill:#ff0000;fill-opacity:1;stroke:#000000;stroke-width:3;stroke-miterlimit:4;stroke-opacity:1;stroke-dasharray:none"
           id="path3787"
           sodipodi:cx="220"
           sodipodi:cy="362.36218"
           sodipodi:rx="10"
           sodipodi:ry="10"
           d="m 230,362.36218 c 0,5.52285 -4.47715,10 -10,10 -5.52285,0 -10,-4.47715 -10,-10 0,-5.52284 4.47715,-10 10,-10 5.52285,0 10,4.47716 10,10 z"
           transform="matrix(0.5,0,0,0.5,231.81469,471.18108)" />
      </g>
    </g>
    <g
       id="g3797"
       transform="matrix(0.70710678,-0.70710678,0.70710678,0.70710678,-255.10849,388.83796)">
      <g
         id="g3799">
        <path
           transform="matrix(0.5,0,0,0.5,231.81469,171.18108)"
           d="m 230,362.36218 c 0,5.52285 -4.47715,10 -10,10 -5.52285,0 -10,-4.47715 -10,-10 0,-5.52284 4.47715,-10 10,-10 5.52285,0 10,4.47716 10,10 z"
           sodipodi:ry="10"
           sodipodi:rx="10"
           sodipodi:cy="362.36218"
           sodipodi:cx="220"
           id="path3801"
           style="fill:#ff0000;fill-opacity:1;stroke:#000000;stroke-width:3;stroke-miterlimit:4;stroke-opacity:1;stroke-dasharray:none"
           sodipodi:type="arc" />
        <path
           sodipodi:type="arc"
           style="fill:#ff0000;fill-opacity:1;stroke:#000000;stroke-width:3;stroke-miterlimit:4;stroke-opacity:1;stroke-dasharray:none"
           id="path3803"
           sodipodi:cx="220"
           sodipodi:cy="362.36218"
           sodipodi:rx="10"
           sodipodi:ry="10"
           d="m 230,362.36218 c 0,5.52285 -4.47715,10 -10,10 -5.52285,0 -10,-4.47715 -10,-10 0,-5.52284 4.47715,-10 10,-10 5.52285,0 10,4.47716 10,10 z"
           transform="matrix(0.5,0,0,0.5,231.81469,471.18108)" />
      </g>
      <g
         id="g3805"
         transform="matrix(0,1,-1,0,844.17686,160.54748)">
        <path
           sodipodi:type="arc"
           style="fill:#ff0000;fill-opacity:1;stroke:#000000;stroke-width:3;stroke-miterlimit:4;stroke-opacity:1;stroke-dasharray:none"
           id="path3807"
           sodipodi:cx="220"
           sodipodi:cy="362.36218"
           sodipodi:rx="10"
           sodipodi:ry="10"
           d="m 230,362.36218 c 0,5.52285 -4.47715,10 -10,10 -5.52285,0 -10,-4.47715 -10,-10 0,-5.52284 4.47715,-10 10,-10 5.52285,0 10,4.47716 10,10 z"
           transform="matrix(0.5,0,0,0.5,231.81469,171.18108)" />
        <path
           transform="matrix(0.5,0,0,0.5,231.81469,471.18108)"
           d="m 230,362.36218 c 0,5.52285 -4.47715,10 -10,10 -5.52285,0 -10,-4.47715 -10,-10 0,-5.52284 4.47715,-10 10,-10 5.52285,0 10,4.47716 10,10 z"
           sodipodi:ry="10"
           sodipodi:rx="10"
           sodipodi:cy="362.36218"
           sodipodi:cx="220"
           id="path3809"
           style="fill:#ff0000;fill-opacity:1;stroke:#000000;stroke-width:3;stroke-miterlimit:4;stroke-opacity:1;stroke-dasharray:none"
           sodipodi:type="arc" />
      </g>
    </g>
    <text
       xml:space="preserve"
       style="font-size:24px;font-style:normal;font-variant:normal;font-weight:normal;font-stretch:normal;text-align:start;line-height:125%;letter-spacing:0px;word-spacing:0px;writing-mode:lr-tb;text-anchor:start;fill:#000000;fill-opacity:1;stroke:none;font-family:Times New Roman;-inkscape-font-specification:'Times New Roman,'"
       x="212.19295"
       y="379.49905"
       id="text3811"
       sodipodi:linespacing="125%"><tspan
         sodipodi:role="line"
         id="tspan3813"
         x="212.19295"
         y="379.49905">1</tspan></text>
    <text
       sodipodi:linespacing="125%"
       id="text3815"
       y="331.47873"
       x="336.423"
       style="font-size:24px;font-style:normal;font-variant:normal;font-weight:normal;font-stretch:normal;text-align:start;line-height:125%;letter-spacing:0px;word-spacing:0px;writing-mode:lr-tb;text-anchor:start;fill:#000000;fill-opacity:1;stroke:none;font-family:Times New Roman;-inkscape-font-specification:'Times New Roman,'"
       xml:space="preserve"><tspan
         sodipodi:role="line"
         id="tspan3819"
         x="336.423"
         y="331.47873">2</tspan></text>
    <text
       xml:space="preserve"
       style="font-size:24px;font-style:normal;font-variant:normal;font-weight:normal;font-stretch:normal;text-align:start;line-height:125%;letter-spacing:0px;word-spacing:0px;writing-mode:lr-tb;text-anchor:start;fill:#000000;fill-opacity:1;stroke:none;font-family:Times New Roman;-inkscape-font-specification:'Times New Roman,'"
       x="458.19293"
       y="377.49905"
       id="text3821"
       sodipodi:linespacing="125%"><tspan
         sodipodi:role="line"
         id="tspan3825"
         x="458.19293"
         y="377.49905">3</tspan></text>
    <g
       id="g3845"
       transform="translate(-34,-22)">
      <text
         xml:space="preserve"
         style="font-size:24px;font-style:italic;font-variant:normal;font-weight:normal;font-stretch:normal;text-align:start;line-height:125%;letter-spacing:0px;word-spacing:0px;writing-mode:lr-tb;text-anchor:start;fill:#000000;fill-opacity:1;stroke:none;font-family:Times New Roman;-inkscape-font-specification:'Times New Roman, Italic'"
         x="220"
         y="661.21777"
         id="text3827"
         sodipodi:linespacing="125%"><tspan
           y="661.21777"
           x="220"
           id="tspan3831"
           sodipodi:role="line">n</tspan></text>
      <text
         xml:space="preserve"
         style="font-size:24px;font-style:normal;font-variant:normal;font-weight:normal;font-stretch:normal;text-align:start;line-height:125%;letter-spacing:0px;word-spacing:0px;writing-mode:lr-tb;text-anchor:start;fill:#000000;fill-opacity:1;stroke:none;font-family:Times New Roman;-inkscape-font-specification:'Times New Roman,'"
         x="238.19295"
         y="661.49902"
         id="text3833"
         sodipodi:linespacing="125%"><tspan
           id="tspan3843"
           sodipodi:role="line"
           x="238.19295"
           y="661.49902">- 1</tspan></text>
    </g>
    <text
       xml:space="preserve"
       style="font-size:24px;font-style:italic;font-variant:normal;font-weight:normal;font-stretch:normal;text-align:start;line-height:125%;letter-spacing:0px;word-spacing:0px;writing-mode:lr-tb;text-anchor:start;fill:#000000;fill-opacity:1;stroke:none;font-family:Times New Roman;-inkscape-font-specification:'Times New Roman, Italic'"
       x="156.19293"
       y="507.2178"
       id="text3837"
       sodipodi:linespacing="125%"><tspan
         id="tspan3839"
         sodipodi:role="line"
         x="156.19293"
         y="507.2178">n</tspan></text>
    <text
       sodipodi:linespacing="125%"
       id="text3851"
       y="507.49905"
       x="514.19293"
       style="font-size:24px;font-style:normal;font-variant:normal;font-weight:normal;font-stretch:normal;text-align:start;line-height:125%;letter-spacing:0px;word-spacing:0px;writing-mode:lr-tb;text-anchor:start;fill:#000000;fill-opacity:1;stroke:none;font-family:Times New Roman;-inkscape-font-specification:'Times New Roman,'"
       xml:space="preserve"><tspan
         sodipodi:role="line"
         id="tspan3855"
         x="514.19293"
         y="507.49905">4</tspan></text>
    <text
       xml:space="preserve"
       style="font-size:24px;font-style:normal;font-variant:normal;font-weight:normal;font-stretch:normal;text-align:start;line-height:125%;letter-spacing:0px;word-spacing:0px;writing-mode:lr-tb;text-anchor:start;fill:#000000;fill-opacity:1;stroke:none;font-family:Times New Roman;-inkscape-font-specification:'Times New Roman,'"
       x="462.19293"
       y="637.49902"
       id="text3857"
       sodipodi:linespacing="125%"><tspan
         sodipodi:role="line"
         id="tspan3861"
         x="462.19293"
         y="637.49902">5</tspan></text>
    <text
       sodipodi:linespacing="125%"
       id="text3863"
       y="681.49902"
       x="333.18277"
       style="font-size:24px;font-style:normal;font-variant:normal;font-weight:normal;font-stretch:normal;text-align:start;line-height:125%;letter-spacing:0px;word-spacing:0px;writing-mode:lr-tb;text-anchor:start;fill:#000000;fill-opacity:1;stroke:none;font-family:Times New Roman;-inkscape-font-specification:'Times New Roman,'"
       xml:space="preserve"><tspan
         sodipodi:role="line"
         id="tspan3867"
         x="333.18277"
         y="681.49902">...</tspan></text>
    <g
       id="g6428"
       transform="translate(369.28571,165.71429)">
      <text
         xml:space="preserve"
         style="font-size:24px;font-style:normal;font-variant:normal;font-weight:normal;font-stretch:normal;text-align:start;line-height:125%;letter-spacing:0px;word-spacing:0px;writing-mode:lr-tb;text-anchor:start;fill:#000000;fill-opacity:1;stroke:none;font-family:Symbol;-inkscape-font-specification:Symbol"
         x="92.192947"
         y="287.49905"
         id="text3869"
         sodipodi:linespacing="125%"><tspan
           id="tspan3879"
           sodipodi:role="line"
           x="92.192947"
           y="287.49905">Σ</tspan></text>
      <text
         sodipodi:linespacing="125%"
         id="text3885"
         y="293.47873"
         x="108.423"
         style="font-size:18px;font-style:normal;font-variant:normal;font-weight:normal;font-stretch:normal;text-align:start;line-height:125%;letter-spacing:0px;word-spacing:0px;writing-mode:lr-tb;text-anchor:start;fill:#000000;fill-opacity:1;stroke:none;font-family:Times New Roman;-inkscape-font-specification:'Times New Roman,'"
         xml:space="preserve"><tspan
           id="tspan6426"
           sodipodi:role="line"
           x="108.423"
           y="293.47873">3</tspan></text>
    </g>
    <g
       id="g4529">
      <path
         transform="matrix(0.90630779,0.42261827,-0.42261827,0.90630779,253.43142,-193.33373)"
         sodipodi:open="true"
         sodipodi:end="3.6459545"
         sodipodi:start="1.0471976"
         d="m 498.69238,537.05886 c -27.44671,15.84636 -62.54269,6.44242 -78.38905,-21.00429 -10.05386,-17.4138 -10.25976,-38.81954 -0.54273,-56.42351"
         sodipodi:ry="57.384773"
         sodipodi:rx="57.384773"
         sodipodi:cy="487.36218"
         sodipodi:cx="470"
         id="path3893"
         style="fill:none;stroke:#000000;stroke-width:1.5;stroke-miterlimit:4;stroke-opacity:1;stroke-dasharray:none;marker-end:url(#Arrow2Mend)"
         sodipodi:type="arc" />
      <path
         sodipodi:type="arc"
         style="fill:none;stroke:#000000;stroke-width:1.5;stroke-miterlimit:4;stroke-opacity:1;stroke-dasharray:none;marker-end:url(#Arrow2Mend)"
         id="path4527"
         sodipodi:cx="470"
         sodipodi:cy="487.36218"
         sodipodi:rx="57.384773"
         sodipodi:ry="57.384773"
         d="m 498.69238,537.05886 c -27.44671,15.84636 -62.54269,6.44242 -78.38905,-21.00429 -10.05386,-17.4138 -10.25976,-38.81954 -0.54273,-56.42351"
         sodipodi:start="1.0471976"
         sodipodi:end="3.6459545"
         sodipodi:open="true"
         transform="matrix(-0.90630779,-0.42261827,0.42261827,-0.90630779,688.04046,1089.4191)" />
    </g>
    <path
       transform="matrix(-0.90630779,0.42261827,0.42261827,0.90630779,432.04046,-193.33373)"
       sodipodi:open="true"
       sodipodi:end="3.6459545"
       sodipodi:start="1.0471976"
       d="m 498.69238,537.05886 c -27.44671,15.84636 -62.54269,6.44242 -78.38905,-21.00429 -10.05386,-17.4138 -10.25976,-38.81954 -0.54273,-56.42351"
       sodipodi:ry="57.384773"
       sodipodi:rx="57.384773"
       sodipodi:cy="487.36218"
       sodipodi:cx="470"
       id="path4535"
       style="fill:none;stroke:#000000;stroke-width:1.5;stroke-miterlimit:4;stroke-opacity:1;stroke-dasharray:none;marker-start:url(#Arrow2Mstart);marker-end:none"
       sodipodi:type="arc" />
    <path
       sodipodi:type="arc"
       style="fill:none;stroke:#000000;stroke-width:1.5;stroke-miterlimit:4;stroke-opacity:1;stroke-dasharray:none;marker-start:url(#Arrow2Mstart);marker-mid:none;marker-end:none"
       id="path4537"
       sodipodi:cx="470"
       sodipodi:cy="487.36218"
       sodipodi:rx="57.384773"
       sodipodi:ry="57.384773"
       d="m 498.69238,537.05886 c -27.44671,15.84636 -62.54269,6.44242 -78.38905,-21.00429 -10.05386,-17.4138 -10.25976,-38.81954 -0.54273,-56.42351"
       sodipodi:start="1.0471976"
       sodipodi:end="3.6459545"
       sodipodi:open="true"
       transform="matrix(0.90630779,-0.42261827,-0.42261827,-0.90630779,-2.56858,1089.4191)" />
    <g
       id="g6434"
       transform="translate(108.57143,104.28571)">
      <g
         id="g6420">
        <text
           xml:space="preserve"
           style="font-size:24px;font-style:normal;font-variant:normal;font-weight:normal;font-stretch:normal;text-align:start;line-height:125%;letter-spacing:0px;word-spacing:0px;writing-mode:lr-tb;text-anchor:start;fill:#000000;fill-opacity:1;stroke:none;font-family:Symbol;-inkscape-font-specification:Symbol"
           x="92.192947"
           y="347.49905"
           id="text6408"
           sodipodi:linespacing="125%"><tspan
             id="tspan6410"
             sodipodi:role="line"
             x="92.192947"
             y="347.49905">Σ</tspan></text>
        <text
           sodipodi:linespacing="125%"
           id="text6416"
           y="353.2178"
           x="108.19293"
           style="font-size:24px;font-style:italic;font-variant:normal;font-weight:normal;font-stretch:normal;text-align:start;line-height:125%;letter-spacing:0px;word-spacing:0px;writing-mode:lr-tb;text-anchor:start;fill:#000000;fill-opacity:1;stroke:none;font-family:Times New Roman;-inkscape-font-specification:'Times New Roman, Italic'"
           xml:space="preserve"><tspan
             y="353.2178"
             x="108.19293"
             sodipodi:role="line"
             id="tspan6418">n</tspan></text>
      </g>
    </g>
  </g>
</svg>
